<svg id="Capa_1" enable-background="new 0 0 512 512" height="512" viewBox="0 0 512 512" width="512" xmlns="http://www.w3.org/2000/svg"><g><path d="m452 256h30v90h-30z" fill="#3e5959"/><path d="m346 211h91v30h-91z" fill="#3e5959"/><path d="m482 482h-196v-30h166v-45h30z" fill="#3e5959"/><g fill="#537983"><path d="m60 166h-30v-136h196v30h-166z"/><path d="m226 482h-166v-105h30v75h136z"/><path d="m105 331h101.371v30h-101.371z"/><path d="m241 377h30v60h-30z"/><path d="m241 75h30v91h-30z"/></g><path d="m256 75h15v91h-15z" fill="#3e5959"/><path d="m256 377h15v60h-15z" fill="#3e5959"/><path d="m211 0v90h90v-90z" fill="#64e1dc"/><path d="m211 422v90h90v-90z" fill="#64e1dc"/><path d="m346 181c-8.401 0-15-6.599-15-15v-15h-150v15c0 8.401-6.599 15-15 15h-15v70.201c0 62.999 40.201 120.099 100.201 139.898l4.799 1.802 4.799-1.802c60-19.799 100.201-76.899 100.201-139.898v-70.201z" fill="#64e1dc"/><path d="m256 0h45v90h-45z" fill="#00c8c8"/><path d="m256 422h45v90h-45z" fill="#00c8c8"/><path d="m361 181v70.201c0 62.999-40.201 120.099-100.201 139.898l-4.799 1.802v-241.901h75v15c0 8.401 6.599 15 15 15z" fill="#00c8c8"/><path d="m311.499 236.499-55.499 55.802-15 15-40.499-40.802 20.998-20.998 19.501 19.198 15-15 34.501-34.198z" fill="#e0f4ff"/><path d="m90 241h-90v-90h90z" fill="#64e1dc"/><path d="m120 392h-90v-91h90z" fill="#64e1dc"/><path d="m512 422h-90v-91h90z" fill="#00c8c8"/><path d="m512 271h-90v-90h90z" fill="#00c8c8"/><path d="m311.499 236.499-55.499 55.802v-42.602l34.501-34.198z" fill="#bbdcff"/></g></svg>