<svg id="logo" xmlns="http://www.w3.org/2000/svg" width="606.598" height="201.385" viewBox="0 0 606.598 201.385">
    <g id="Group_1" data-name="Group 1" transform="translate(216.532 56.156)">
      <path id="Path_1" data-name="Path 1" d="M489.1,236.072V165.311A18.41,18.41,0,0,1,507.412,147H559.77a17.761,17.761,0,0,1,12.977,5.426,17.416,17.416,0,0,1,5.426,12.931v70.761h-19.4V207.36h-50.5v28.756ZM508.271,188.1H558.73V166.351H508.271Z" transform="translate(-489.1 -146.998)" fill="#001454"/>
      <path id="Path_2" data-name="Path 2" d="M717.8,236.072V147h70.67a18.606,18.606,0,0,1,18.4,18.357V217.8a17.29,17.29,0,0,1-5.471,12.931,17.648,17.648,0,0,1-12.931,5.335Zm23.24-19.307h46.39V166.306H736.971v50.459Z" transform="translate(-614.394 -146.998)" fill="#001454"/>
      <path id="Path_3" data-name="Path 3" d="M945.9,236.073V147h82.245v19.307H965.3v15.6h50.6v19.307h-50.55v15.6h62.848v19.261Z" transform="translate(-739.36 -146.999)" fill="#001454"/>
      <path id="Path_4" data-name="Path 4" d="M1154.9,236.073V147h19.759l49.826,59.367V147h19.442v89.073h-19.8l-50.1-59.593v59.593Z" transform="translate(-853.862 -146.999)" fill="#001454"/>
    </g>
    <g id="Group_2" data-name="Group 2" transform="translate(0 0)">
      <path id="Path_5" data-name="Path 5" d="M110.893,22.8h0A100.689,100.689,0,0,1,211.585,123.493h0A100.689,100.689,0,0,1,110.893,224.185h0A100.689,100.689,0,0,1,10.2,123.493h0A100.718,100.718,0,0,1,110.893,22.8Z" transform="translate(-10.2 -22.8)" fill="#001454"/>
      <path id="Path_6" data-name="Path 6" d="M147.816,257.3H111.1a24.266,24.266,0,0,1-20.844-36.714l5.471-9.179h8.952l-7.822,13.112a16.566,16.566,0,0,0,5.7,22.743,13.633,13.633,0,0,0,2.306,1.13h0a16.551,16.551,0,0,0,6.285,1.221h6.33l11.484-19.171h35.4l3.346,5.607,8.319,13.564h6.1a16.653,16.653,0,0,0,16.639-16.639h0a16.6,16.6,0,0,0-2.351-8.5l-14.695-24.642H159.436l-12.8-21.432-19.668,32.961h13.293l6.285-10.535,6.285,10.535,22.291-.045,11.349,19.035a4.774,4.774,0,0,1,.723,2.622h0a5.175,5.175,0,0,1-4.974,5.154L170.83,219l-.045.045V219h-48.38l-11.439,19.126a5.154,5.154,0,0,1-5.019-5.154,5.449,5.449,0,0,1,.723-2.622l18.176-30.52H89.173l-8.817,14.83A35.744,35.744,0,0,0,111.1,268.739h43.27Z" transform="translate(-45.857 -108.046)" fill="#009eff"/>
      <path id="Path_7" data-name="Path 7" d="M151.5,94.038a36.268,36.268,0,0,0-13.745,13.293L116.1,143.639h35.674l12.3-20.663a5.709,5.709,0,0,1,7.777-1.989,5.979,5.979,0,0,1,1.989,1.989l12.3,20.618,22.246-.045,16.91,28.35a24.068,24.068,0,0,1,3.436,12.434h0a24.285,24.285,0,0,1-24.28,24.28h-11.3l-11.394-19.171h-25.5l-6.6,11.575H175.2l11.349,19.171H204.4a35.785,35.785,0,0,0,35.765-35.765h0A35.8,35.8,0,0,0,235.1,166.11l-20.256-33.956H192.558l-8.952-14.966a17.152,17.152,0,0,0-29.48,0l-8.952,14.966h-8.907l11.258-18.9a24.806,24.806,0,0,1,42.637,0l6.737,11.3h13.383l-10.218-17.182A36.27,36.27,0,0,0,151.5,94.038Z" transform="translate(-68.218 -59.404)" fill="#009eff"/>
    </g>
  </svg>
  